<svg xmlns="http://www.w3.org/2000/svg" width="1200" height="630" viewBox="0 0 1200 630">
  <defs>
    <linearGradient id="bg" x1="0" y1="0" x2="1" y2="1">
      <stop offset="0" stop-color="#0E1613"/>
      <stop offset="1" stop-color="#12251C"/>
    </linearGradient>
  </defs>
  <rect width="1200" height="630" fill="url(#bg)"/>

  <!-- stylised PCN loops: coloured route lines sweeping across the card -->
  <g fill="none" stroke-linecap="round" opacity="0.9">
    <path d="M -40 532 C 240 492 380 572 640 532 S 1080 492 1260 522" stroke="#A76BFF" stroke-width="10" opacity="0.75"/>
    <path d="M -40 572 C 240 532 380 612 640 572 S 1080 532 1260 562" stroke="#FFD23F" stroke-width="10"/>
    <path d="M -40 612 C 240 572 380 652 640 612 S 1080 572 1260 602" stroke="#37BA66" stroke-width="10"/>
    <path d="M -40 652 C 240 612 380 692 640 652 S 1080 612 1260 642" stroke="#14A6C2" stroke-width="10"/>
  </g>

  <!-- brand glyph: dashed loop + hub -->
  <g transform="translate(120,150)">
    <circle cx="0" cy="0" r="58" fill="none" stroke="#38BDF8" stroke-width="11" stroke-dasharray="18 20"/>
    <circle cx="0" cy="0" r="20" fill="#38BDF8"/>
  </g>

  <text x="220" y="175" font-family="Segoe UI, Arial, sans-serif" font-size="76" font-weight="700" fill="#EAF2ED">Cycling Buddy SG</text>
  <text x="222" y="245" font-family="Segoe UI, Arial, sans-serif" font-size="38" fill="#9FB4A9">The free cycling map for Singapore</text>

  <g font-family="Segoe UI, Arial, sans-serif" font-size="29" fill="#EAF2ED">
    <g transform="translate(222,312)">
      <circle cx="14" cy="-10" r="6" fill="#FFD23F"/><text x="38" y="0">7 park connector loops</text>
    </g>
    <g transform="translate(222,362)">
      <circle cx="14" cy="-10" r="6" fill="#37BA66"/><text x="38" y="0">305 parks &amp; nature reserves</text>
    </g>
    <g transform="translate(222,412)">
      <circle cx="14" cy="-10" r="6" fill="#A76BFF"/><text x="38" y="0">Offline turn-by-turn routes</text>
    </g>
    <g transform="translate(700,312)">
      <circle cx="14" cy="-10" r="6" fill="#14A6C2"/><text x="38" y="0">Live NEA rain radar</text>
    </g>
    <g transform="translate(700,362)">
      <circle cx="14" cy="-10" r="6" fill="#E2E8F0"/><text x="38" y="0">396 bike parking racks</text>
    </g>
    <g transform="translate(700,412)">
      <circle cx="14" cy="-10" r="6" fill="#FF3B5C"/><text x="38" y="0">Record rides, export GPX</text>
    </g>
  </g>

  <text x="222" y="470" font-family="Segoe UI, Arial, sans-serif" font-size="25" fill="#8A9C91">Free · No app store · Installs from the browser</text>
</svg>
